<svg width="13" height="8" viewBox="0 0 13 8" fill="none" xmlns="http://www.w3.org/2000/svg">
<path d="M11.4882 0.548806C11.5455 0.48619 11.6128 0.437239 11.6864 0.404746C11.76 0.372254 11.8384 0.356856 11.9172 0.359434C11.9959 0.362012 12.0734 0.382515 12.1453 0.419771C12.2172 0.457026 12.282 0.510306 12.3361 0.576568C12.3902 0.64283 12.4325 0.720777 12.4606 0.805957C12.4887 0.891137 12.502 0.981883 12.4998 1.07301C12.4975 1.16414 12.4798 1.25387 12.4476 1.33708C12.4154 1.42029 12.3694 1.49534 12.3122 1.55796L6.91533 7.45741C6.80399 7.57924 6.65659 7.64712 6.50337 7.64712C6.35015 7.64712 6.20275 7.57924 6.09141 7.45741L0.693979 1.55796C0.635477 1.49576 0.588236 1.42072 0.555 1.33721C0.521765 1.25369 0.503199 1.16337 0.500378 1.07148C0.497557 0.979591 0.51054 0.887969 0.53857 0.801937C0.566602 0.715904 0.609121 0.637175 0.663662 0.570324C0.718204 0.503472 0.783677 0.44983 0.85628 0.412514C0.928884 0.375197 1.00717 0.35495 1.08659 0.352948C1.16601 0.350946 1.24499 0.367229 1.31892 0.400851C1.39286 0.434474 1.46029 0.484766 1.5173 0.548806L6.50337 5.99851L11.4882 0.548806Z" fill="#979797"/>
</svg>
