<svg width="28" height="28" viewBox="0 0 28 28" fill="none" xmlns="http://www.w3.org/2000/svg">
<path d="M13.7734 0.720215C6.44006 0.720215 0.440063 6.70688 0.440063 14.0802C0.440063 20.7469 5.32006 26.2802 11.6934 27.2802V17.9469H8.30673V14.0802H11.6934V11.1335C11.6934 7.78688 13.6801 5.94688 16.7334 5.94688C18.1867 5.94688 19.7067 6.20022 19.7067 6.20022V9.49355H18.0267C16.3734 9.49355 15.8534 10.5202 15.8534 11.5735V14.0802H19.5601L18.9601 17.9469H15.8534V27.2802C18.9953 26.784 21.8563 25.1809 23.92 22.7603C25.9836 20.3397 27.1139 17.2611 27.1067 14.0802C27.1067 6.70688 21.1067 0.720215 13.7734 0.720215Z" fill="white"/>
</svg>
