<svg width="57" height="57" viewBox="0 0 57 57" fill="none" xmlns="http://www.w3.org/2000/svg">
<path d="M0.619262 56.9372C7.91561 56.8566 15.1245 55.3267 21.8343 52.4349C28.5441 49.5432 34.6235 45.3461 39.7253 40.0834C44.8271 34.8207 48.8514 28.5954 51.5684 21.7629C54.2855 14.9305 55.6421 7.6247 55.5608 0.262695L-1.13004e-05 0.876449L0.619262 56.9372Z" fill="#091E29"/>
<path d="M30.2532 29.0667C28.9134 29.0667 27.6036 28.6943 26.4895 27.9967C25.3755 27.299 24.5072 26.3073 23.9944 25.1471C23.4817 23.9869 23.3475 22.7102 23.6089 21.4786C23.8703 20.2469 24.5155 19.1155 25.463 18.2275C26.4104 17.3396 27.6175 16.7348 28.9316 16.4898C30.2457 16.2448 31.6078 16.3706 32.8457 16.8512C34.0836 17.3317 35.1416 18.1456 35.886 19.1897C36.6304 20.2339 37.0277 21.4615 37.0277 22.7173L37.0587 23.6243C37.0587 26.9923 35.6312 30.2223 33.0903 32.6038C30.5494 34.9853 27.1031 36.3232 23.5097 36.3232V32.695C24.7812 32.6982 26.0407 32.4651 27.2155 32.0092C28.3903 31.5534 29.457 30.8838 30.3539 30.0391C30.7025 29.713 31.0241 29.3624 31.3159 28.9905C30.9694 29.0413 30.6152 29.0685 30.2552 29.0685L30.2532 29.0667ZM12.8332 29.0667C11.4933 29.0667 10.1835 28.6943 9.06946 27.9967C7.95541 27.299 7.08711 26.3073 6.57436 25.1471C6.06162 23.9869 5.92746 22.7102 6.18886 21.4786C6.45025 20.2469 7.09546 19.1155 8.04288 18.2275C8.99031 17.3396 10.1974 16.7348 11.5115 16.4898C12.8256 16.2448 14.1878 16.3706 15.4256 16.8512C16.6635 17.3317 17.7215 18.1456 18.4659 19.1897C19.2103 20.2339 19.6076 21.4615 19.6076 22.7173L19.6386 23.6243C19.6386 26.9923 18.2111 30.2223 15.6702 32.6038C13.1293 34.9853 9.68306 36.3232 6.08965 36.3232V32.695C7.36112 32.6982 8.62066 32.4651 9.79542 32.0092C10.9702 31.5534 12.0369 30.8838 12.9338 30.0391C13.2824 29.713 13.604 29.3624 13.8958 28.9905C13.5493 29.0413 13.1951 29.0667 12.8332 29.0667Z" fill="#F8F9FE"/>
</svg>
