<svg width="30" height="25" viewBox="0 0 30 25" fill="none" xmlns="http://www.w3.org/2000/svg">
<path d="M29.8394 12.3822L18.6358 23.5859C18.5039 23.74 18.3414 23.8651 18.1588 23.9535C17.9761 24.0419 17.7772 24.0915 17.5744 24.0994C17.3717 24.1072 17.1695 24.073 16.9806 23.999C16.7917 23.925 16.6201 23.8127 16.4766 23.6693C16.3331 23.5258 16.2209 23.3542 16.1468 23.1653C16.0728 22.9764 16.0387 22.7742 16.0465 22.5714C16.0543 22.3687 16.104 22.1697 16.1924 21.9871C16.2807 21.8044 16.4059 21.642 16.56 21.51L24.0683 13.9722H1.985C1.59455 13.9722 1.22008 13.8171 0.943987 13.541C0.667892 13.2649 0.512781 12.8905 0.512781 12.5C0.512781 12.1096 0.667892 11.7351 0.943987 11.459C1.22008 11.1829 1.59455 11.0278 1.985 11.0278H24.3333L16.56 3.25447C16.4059 3.12249 16.2807 2.96007 16.1924 2.77742C16.104 2.59477 16.0543 2.39583 16.0465 2.19308C16.0387 1.99032 16.0728 1.78814 16.1468 1.59921C16.2209 1.41029 16.3331 1.23871 16.4766 1.09523C16.6201 0.951756 16.7917 0.839487 16.9806 0.765472C17.1695 0.691456 17.3717 0.657293 17.5744 0.665125C17.7772 0.672955 17.9761 0.722612 18.1588 0.810982C18.3414 0.899349 18.5039 1.02452 18.6358 1.17863L29.8394 12.3822Z" fill="#091E29"/>
</svg>
