<svg width="8" height="5" viewBox="0 0 8 5" fill="none" xmlns="http://www.w3.org/2000/svg">
<path d="M7.57747 0.647265L3.14801 4.68857C3.10943 4.72389 3.06359 4.75191 3.01312 4.77103C2.96264 4.79016 2.90852 4.8 2.85387 4.8C2.79921 4.8 2.7451 4.79016 2.69462 4.77103C2.64415 4.75191 2.5983 4.72389 2.55973 4.68857L0.621838 2.9205C0.583211 2.88525 0.55257 2.84342 0.531665 2.79737C0.51076 2.75132 0.5 2.70197 0.5 2.65213C0.5 2.60229 0.51076 2.55294 0.531665 2.50689C0.55257 2.46084 0.583211 2.419 0.621838 2.38376C0.660466 2.34852 0.706323 2.32056 0.756792 2.30149C0.807262 2.28242 0.861354 2.2726 0.915982 2.2726C0.970609 2.2726 1.0247 2.28242 1.07517 2.30149C1.12564 2.32056 1.1715 2.34852 1.21013 2.38376L2.85421 3.88378L6.98987 0.111161C7.06788 0.0399859 7.17369 0 7.28402 0C7.39434 0 7.50015 0.0399859 7.57816 0.111161C7.65617 0.182337 7.7 0.278872 7.7 0.379529C7.7 0.480187 7.65548 0.57609 7.57747 0.647265Z" fill="white"/>
</svg>
