<svg width="30" height="25" viewBox="0 0 30 25" fill="none" xmlns="http://www.w3.org/2000/svg">
<path d="M0.160522 12.3822L11.3641 23.5859C11.4961 23.74 11.6585 23.8651 11.8412 23.9535C12.0238 24.0419 12.2228 24.0915 12.4255 24.0994C12.6283 24.1072 12.8305 24.073 13.0194 23.999C13.2083 23.925 13.3799 23.8127 13.5234 23.6693C13.6668 23.5258 13.7791 23.3542 13.8531 23.1653C13.9271 22.9764 13.9613 22.7742 13.9535 22.5714C13.9456 22.3687 13.896 22.1697 13.8076 21.9871C13.7193 21.8044 13.5941 21.642 13.44 21.51L5.93163 13.9722H28.015C28.4054 13.9722 28.7799 13.8171 29.056 13.541C29.3321 13.2649 29.4872 12.8905 29.4872 12.5C29.4872 12.1096 29.3321 11.7351 29.056 11.459C28.7799 11.1829 28.4054 11.0278 28.015 11.0278H5.66663L13.44 3.25447C13.5941 3.12249 13.7193 2.96008 13.8076 2.77742C13.896 2.59477 13.9456 2.39583 13.9535 2.19308C13.9613 1.99032 13.9271 1.78814 13.8531 1.59922C13.7791 1.41029 13.6668 1.23871 13.5234 1.09523C13.3799 0.951759 13.2083 0.839489 13.0194 0.765474C12.8305 0.69146 12.6283 0.657295 12.4255 0.665127C12.2228 0.672958 12.0238 0.722616 11.8412 0.810984C11.6585 0.899351 11.4961 1.02452 11.3641 1.17864L0.160522 12.3822Z" fill="#091E29"/>
</svg>
