<svg width="21" height="20" viewBox="0 0 21 20" fill="none" xmlns="http://www.w3.org/2000/svg">
<path d="M17.6687 2.91005C16.7473 1.98398 15.6498 1.24972 14.4402 0.750108C13.2306 0.250493 11.9331 -0.0044801 10.6235 5.95695e-05C5.13601 5.95695e-05 0.663654 4.45005 0.663654 9.91003C0.663654 11.66 1.12597 13.36 1.99029 14.86L0.583252 20L5.85963 18.62C7.31692 19.41 8.95511 19.83 10.6235 19.83C16.1109 19.83 20.5833 15.38 20.5833 9.92003C20.5833 7.27004 19.5481 4.78005 17.6687 2.91005ZM10.6235 18.15C9.13601 18.15 7.67873 17.75 6.40235 17L6.10084 16.82L2.96516 17.64L3.79933 14.6L3.59833 14.29C2.77194 12.977 2.33314 11.4593 2.332 9.91003C2.332 5.37004 6.05059 1.67005 10.6134 1.67005C12.8245 1.67005 14.9049 2.53005 16.4626 4.09005C17.234 4.85401 17.8453 5.7627 18.261 6.76346C18.6768 7.76422 18.8888 8.83714 18.8848 9.92003C18.9049 14.46 15.1863 18.15 10.6235 18.15ZM15.1662 11.99C14.9149 11.87 13.6888 11.27 13.4677 11.18C13.2365 11.1 13.0757 11.06 12.9049 11.3C12.734 11.55 12.2616 12.11 12.1209 12.27C11.9802 12.44 11.8295 12.46 11.5782 12.33C11.327 12.21 10.5229 11.94 9.57823 11.1C8.83451 10.44 8.34204 9.63003 8.19129 9.38003C8.05059 9.13003 8.17119 9.00003 8.30184 8.87003C8.4124 8.76003 8.5531 8.58003 8.6737 8.44003C8.79431 8.30003 8.84456 8.19003 8.92496 8.03004C9.00536 7.86004 8.96516 7.72004 8.90486 7.60004C8.84456 7.48004 8.34204 6.26004 8.14104 5.76004C7.94003 5.28004 7.72898 5.34004 7.57823 5.33004H7.09581C6.92496 5.33004 6.66365 5.39004 6.4325 5.64004C6.21139 5.89004 5.56818 6.49004 5.56818 7.71004C5.56818 8.93003 6.46265 10.11 6.58325 10.27C6.70385 10.44 8.34204 12.94 10.8345 14.01C11.4275 14.27 11.8898 14.42 12.2516 14.53C12.8446 14.72 13.3873 14.69 13.8194 14.63C14.3018 14.56 15.2968 14.03 15.4978 13.45C15.7089 12.87 15.7089 12.38 15.6385 12.27C15.5682 12.16 15.4174 12.11 15.1662 11.99Z" fill="#F8F9FE"/>
</svg>
